<?xml version="1.0" encoding="UTF-8"?>
<svg width="1200" height="700" viewBox="0 0 1200 700" fill="none" xmlns="http://www.w3.org/2000/svg">
  <rect width="1200" height="700" fill="#F5F5F4"/>
  <rect x="70" y="110" width="520" height="360" rx="22" stroke="#1F2937" stroke-width="6"/>
  <rect x="110" y="180" width="390" height="220" rx="18" stroke="#1F2937" stroke-width="5"/>
  <path d="M170 240H430" stroke="#1F2937" stroke-width="5" stroke-linecap="round"/>
  <path d="M170 280H430" stroke="#1F2937" stroke-width="5" stroke-linecap="round"/>
  <path d="M170 320H430" stroke="#1F2937" stroke-width="5" stroke-linecap="round"/>
  <circle cx="880" cy="250" r="80" stroke="#1F2937" stroke-width="6"/>
  <path d="M880 250L910 230" stroke="#1F2937" stroke-width="6" stroke-linecap="round"/>
  <path d="M880 250V210" stroke="#1F2937" stroke-width="6" stroke-linecap="round"/>
  <path d="M820 188L780 152" stroke="#1F2937" stroke-width="6" stroke-linecap="round"/>
  <path d="M940 188L980 152" stroke="#1F2937" stroke-width="6" stroke-linecap="round"/>
  <path d="M760 390C800 350 960 350 1000 390" stroke="#1F2937" stroke-width="6" stroke-linecap="round"/>
  <path d="M120 560C220 530 320 530 420 560" stroke="#1F2937" stroke-width="6" stroke-linecap="round"/>
  <path d="M670 560C810 520 950 520 1090 560" stroke="#1F2937" stroke-width="6" stroke-linecap="round"/>
  <text x="85" y="655" fill="#334155" font-size="40" font-family="Georgia, serif">Roommate Alarm Catastrophe</text>
</svg>
