<?xml version="1.0" encoding="UTF-8"?>
<svg width="1200" height="700" viewBox="0 0 1200 700" fill="none" xmlns="http://www.w3.org/2000/svg">
  <rect width="1200" height="700" fill="#F5F5F4"/>
  <rect x="110" y="120" width="980" height="420" rx="28" stroke="#1F2937" stroke-width="6"/>
  <ellipse cx="360" cy="360" rx="160" ry="80" stroke="#1F2937" stroke-width="6"/>
  <ellipse cx="840" cy="360" rx="160" ry="80" stroke="#1F2937" stroke-width="6"/>
  <circle cx="290" cy="250" r="40" stroke="#1F2937" stroke-width="6"/>
  <circle cx="430" cy="250" r="40" stroke="#1F2937" stroke-width="6"/>
  <circle cx="770" cy="250" r="40" stroke="#1F2937" stroke-width="6"/>
  <circle cx="910" cy="250" r="40" stroke="#1F2937" stroke-width="6"/>
  <path d="M250 430C280 470 440 470 470 430" stroke="#1F2937" stroke-width="6" stroke-linecap="round"/>
  <path d="M730 430C760 470 920 470 950 430" stroke="#1F2937" stroke-width="6" stroke-linecap="round"/>
  <path d="M520 210H680" stroke="#1F2937" stroke-width="5" stroke-linecap="round"/>
  <path d="M520 250H680" stroke="#1F2937" stroke-width="5" stroke-linecap="round"/>
  <path d="M520 290H680" stroke="#1F2937" stroke-width="5" stroke-linecap="round"/>
  <path d="M540 180C560 150 640 150 660 180" stroke="#1F2937" stroke-width="6" stroke-linecap="round"/>
  <text x="120" y="645" fill="#334155" font-size="40" font-family="Georgia, serif">Canteen Gossip Press Conference</text>
</svg>
