<?xml version="1.0" encoding="UTF-8"?>
<svg width="1200" height="700" viewBox="0 0 1200 700" fill="none" xmlns="http://www.w3.org/2000/svg">
  <rect width="1200" height="700" fill="#F5F5F4"/>
  <rect x="100" y="90" width="1000" height="500" rx="30" stroke="#1F2937" stroke-width="6"/>
  <rect x="150" y="150" width="420" height="320" rx="22" stroke="#1F2937" stroke-width="6"/>
  <rect x="630" y="150" width="420" height="320" rx="22" stroke="#1F2937" stroke-width="6"/>
  <path d="M220 220C260 200 320 200 360 220" stroke="#1F2937" stroke-width="6" stroke-linecap="round"/>
  <path d="M700 220C740 200 800 200 840 220" stroke="#1F2937" stroke-width="6" stroke-linecap="round"/>
  <path d="M220 270H500" stroke="#1F2937" stroke-width="6" stroke-linecap="round"/>
  <path d="M700 270H980" stroke="#1F2937" stroke-width="6" stroke-linecap="round"/>
  <circle cx="360" cy="350" r="48" stroke="#1F2937" stroke-width="6"/>
  <circle cx="840" cy="350" r="48" stroke="#1F2937" stroke-width="6"/>
  <path d="M360 302V398" stroke="#1F2937" stroke-width="6" stroke-linecap="round"/>
  <path d="M312 350H408" stroke="#1F2937" stroke-width="6" stroke-linecap="round"/>
  <path d="M792 350H888" stroke="#1F2937" stroke-width="6" stroke-linecap="round"/>
  <path d="M840 302V398" stroke="#1F2937" stroke-width="6" stroke-linecap="round"/>
  <text x="120" y="645" fill="#334155" font-size="40" font-family="Georgia, serif">Coriander Civil War</text>
</svg>
