<?xml version="1.0" encoding="UTF-8"?>
<svg width="1200" height="700" viewBox="0 0 1200 700" fill="none" xmlns="http://www.w3.org/2000/svg">
  <rect width="1200" height="700" fill="#F5F5F4"/>
  <rect x="120" y="120" width="960" height="450" rx="26" stroke="#1F2937" stroke-width="6"/>
  <rect x="190" y="190" width="280" height="180" rx="16" stroke="#1F2937" stroke-width="6"/>
  <rect x="510" y="190" width="280" height="180" rx="16" stroke="#1F2937" stroke-width="6"/>
  <rect x="830" y="190" width="180" height="180" rx="16" stroke="#1F2937" stroke-width="6"/>
  <circle cx="330" cy="460" r="40" stroke="#1F2937" stroke-width="6"/>
  <circle cx="600" cy="460" r="40" stroke="#1F2937" stroke-width="6"/>
  <circle cx="890" cy="460" r="40" stroke="#1F2937" stroke-width="6"/>
  <path d="M280 520C305 550 355 550 380 520" stroke="#1F2937" stroke-width="6" stroke-linecap="round"/>
  <path d="M550 520C575 550 625 550 650 520" stroke="#1F2937" stroke-width="6" stroke-linecap="round"/>
  <path d="M840 520C865 550 915 550 940 520" stroke="#1F2937" stroke-width="6" stroke-linecap="round"/>
  <path d="M220 390H980" stroke="#1F2937" stroke-width="6"/>
  <text x="120" y="655" fill="#334155" font-size="40" font-family="Georgia, serif">Monday 8AM Survival Plan</text>
</svg>
