<?xml version="1.0" encoding="UTF-8"?>
<svg width="320" height="320" viewBox="0 0 320 320" fill="none" xmlns="http://www.w3.org/2000/svg">
  <rect width="320" height="320" rx="36" fill="#FAFAF9"/>
  <rect x="18" y="18" width="284" height="284" rx="28" fill="#DBEAFE" fill-opacity="0.42"/>
  <path d="M46 76H274" stroke="#CBD5E1" stroke-opacity="0.6" stroke-width="2" stroke-dasharray="6 10"/>
  <path d="M52 246H268" stroke="#CBD5E1" stroke-opacity="0.6" stroke-width="2" stroke-dasharray="6 10"/>
  <path d="M90 80C120 44 206 50 230 84" stroke="#0F172A" stroke-width="4" stroke-linecap="round"/>
  <path d="M118 72C136 62 184 62 202 72" stroke="#0F172A" stroke-width="4" stroke-linecap="round"/>
  <circle cx="160" cy="124" r="44" stroke="#0F172A" stroke-width="4"/>
  <path d="M132 100C138 94 146 94 152 100" stroke="#0F172A" stroke-width="4" stroke-linecap="round"/>
  <path d="M168 100C174 94 182 94 188 100" stroke="#0F172A" stroke-width="4" stroke-linecap="round"/>
  <path d="M160 112V140" stroke="#0F172A" stroke-width="4" stroke-linecap="round"/>
  <path d="M146 148C152 154 168 154 174 148" stroke="#0F172A" stroke-width="4" stroke-linecap="round"/>
  <path d="M112 176C128 194 192 194 208 176" stroke="#0F172A" stroke-width="4" stroke-linecap="round"/>
  <path d="M132 194C148 208 172 208 188 194" stroke="#0F172A" stroke-width="4" stroke-linecap="round"/>
  <path d="M152 198L160 210L168 198" stroke="#0F172A" stroke-width="3" stroke-linecap="round" stroke-linejoin="round"/>
  <path d="M160 210V224" stroke="#0F172A" stroke-width="3" stroke-linecap="round"/>
  <text x="36" y="286" fill="#0F172A" font-size="30" font-family="Georgia, 'Times New Roman', serif" font-weight="700">EB</text>
  <text x="36" y="306" fill="#64748B" font-size="12" font-family="'Segoe UI', Arial, sans-serif">Edward Bernays</text>
</svg>
