<?xml version="1.0" encoding="UTF-8"?>
<svg width="320" height="320" viewBox="0 0 320 320" fill="none" xmlns="http://www.w3.org/2000/svg">
  <rect width="320" height="320" rx="36" fill="#F8FAFC"/>
  <rect x="18" y="18" width="284" height="284" rx="28" fill="#ecfeff" fill-opacity="0.45"/>
  <path d="M42 74H278" stroke="#CBD5E1" stroke-opacity="0.55" stroke-width="2" stroke-dasharray="6 10"/>
  <path d="M48 248H272" stroke="#CBD5E1" stroke-opacity="0.55" stroke-width="2" stroke-dasharray="6 10"/>
  <path d="M80 72C108 52, 212 52, 240 72" stroke="#0f766e" stroke-width="4" stroke-linecap="round"/>
  <circle cx="160" cy="120" r="46" stroke="#0f766e" stroke-width="4"/>
  <path d="M126 84C136 80, 144 80, 152 84" stroke="#0f766e" stroke-width="4" stroke-linecap="round"/>
  <path d="M168 84C176 80, 184 80, 194 84" stroke="#0f766e" stroke-width="4" stroke-linecap="round"/>
  <path d="M132 102H144" stroke="#0f766e" stroke-width="4" stroke-linecap="round"/><path d="M176 102H188" stroke="#0f766e" stroke-width="4" stroke-linecap="round"/>
  <path d="M160 110V138" stroke="#0f766e" stroke-width="4" stroke-linecap="round"/>
  <path d="M145 150C152 156, 168 156, 175 150" stroke="#0f766e" stroke-width="4" stroke-linecap="round"/>
  
  <path d="M98 168C116 176, 204 176, 222 168" stroke="#0f766e" stroke-width="4" stroke-linecap="round"/>
  <path d="M116 190C136 206, 184 206, 204 190" stroke="#0f766e" stroke-width="4" stroke-linecap="round"/>
  <text x="38" y="286" fill="#0f766e" font-size="34" font-family="Georgia, 'Times New Roman', serif" font-weight="700">JH</text>
  <text x="38" y="306" fill="#475569" font-size="12" font-family="'Segoe UI', Arial, sans-serif">Sketch portrait placeholder</text>
</svg>