<?xml version="1.0" encoding="UTF-8"?>
<svg width="320" height="320" viewBox="0 0 320 320" fill="none" xmlns="http://www.w3.org/2000/svg">
  <rect width="320" height="320" rx="36" fill="#FAFAF9"/>
  <rect x="18" y="18" width="284" height="284" rx="28" fill="#E7E5E4" fill-opacity="0.55"/>
  <path d="M46 76H274" stroke="#CBD5E1" stroke-opacity="0.6" stroke-width="2" stroke-dasharray="6 10"/>
  <path d="M52 246H268" stroke="#CBD5E1" stroke-opacity="0.6" stroke-width="2" stroke-dasharray="6 10"/>
  <path d="M92 78C116 52 206 52 228 78" stroke="#1F2937" stroke-width="4" stroke-linecap="round"/>
  <path d="M122 74C136 66 184 66 198 74" stroke="#1F2937" stroke-width="4" stroke-linecap="round"/>
  <circle cx="160" cy="122" r="44" stroke="#1F2937" stroke-width="4"/>
  <rect x="114" y="94" width="34" height="22" rx="8" stroke="#1F2937" stroke-width="3"/>
  <rect x="172" y="94" width="34" height="22" rx="8" stroke="#1F2937" stroke-width="3"/>
  <path d="M148 105H172" stroke="#1F2937" stroke-width="3" stroke-linecap="round"/>
  <path d="M132 146C144 154 176 154 188 146" stroke="#1F2937" stroke-width="4" stroke-linecap="round"/>
  <path d="M146 114V138" stroke="#1F2937" stroke-width="4" stroke-linecap="round"/>
  <path d="M164 114V138" stroke="#1F2937" stroke-width="4" stroke-linecap="round"/>
  <path d="M110 176C128 194 192 194 210 176" stroke="#1F2937" stroke-width="4" stroke-linecap="round"/>
  <path d="M130 194C146 210 174 210 190 194" stroke="#1F2937" stroke-width="4" stroke-linecap="round"/>
  <path d="M146 198L160 220L174 198" stroke="#1F2937" stroke-width="3" stroke-linecap="round" stroke-linejoin="round"/>
  <text x="36" y="286" fill="#1F2937" font-size="30" font-family="Georgia, 'Times New Roman', serif" font-weight="700">PL</text>
  <text x="36" y="306" fill="#78716C" font-size="12" font-family="'Segoe UI', Arial, sans-serif">Paul Lazarsfeld</text>
</svg>
