<?xml version="1.0" encoding="UTF-8"?>
<svg width="320" height="320" viewBox="0 0 320 320" fill="none" xmlns="http://www.w3.org/2000/svg">
  <rect width="320" height="320" rx="36" fill="#FAFAF9"/>
  <rect x="18" y="18" width="284" height="284" rx="28" fill="#E5E7EB" fill-opacity="0.55"/>
  <path d="M46 76H274" stroke="#CBD5E1" stroke-opacity="0.6" stroke-width="2" stroke-dasharray="6 10"/>
  <path d="M52 246H268" stroke="#CBD5E1" stroke-opacity="0.6" stroke-width="2" stroke-dasharray="6 10"/>
  <path d="M92 80C118 48 204 50 228 82" stroke="#111827" stroke-width="4" stroke-linecap="round"/>
  <path d="M122 74C138 66 182 66 198 74" stroke="#111827" stroke-width="4" stroke-linecap="round"/>
  <circle cx="160" cy="124" r="44" stroke="#111827" stroke-width="4"/>
  <path d="M132 100C138 94 146 94 152 100" stroke="#111827" stroke-width="4" stroke-linecap="round"/>
  <path d="M168 100C174 94 182 94 188 100" stroke="#111827" stroke-width="4" stroke-linecap="round"/>
  <path d="M160 112V138" stroke="#111827" stroke-width="4" stroke-linecap="round"/>
  <path d="M146 148C152 154 168 154 174 148" stroke="#111827" stroke-width="4" stroke-linecap="round"/>
  <path d="M110 176C128 194 192 194 210 176" stroke="#111827" stroke-width="4" stroke-linecap="round"/>
  <path d="M130 194C146 208 174 208 190 194" stroke="#111827" stroke-width="4" stroke-linecap="round"/>
  <path d="M152 198L160 212L168 198" stroke="#111827" stroke-width="3" stroke-linecap="round" stroke-linejoin="round"/>
  <path d="M160 212V226" stroke="#111827" stroke-width="3" stroke-linecap="round"/>
  <text x="36" y="286" fill="#111827" font-size="30" font-family="Georgia, 'Times New Roman', serif" font-weight="700">RR</text>
  <text x="36" y="306" fill="#64748B" font-size="12" font-family="'Segoe UI', Arial, sans-serif">Rosser Reeves</text>
</svg>
