<?xml version="1.0" encoding="UTF-8"?>
<svg width="320" height="320" viewBox="0 0 320 320" fill="none" xmlns="http://www.w3.org/2000/svg">
  <rect width="320" height="320" rx="36" fill="#F8FAFC"/>
  <rect x="18" y="18" width="284" height="284" rx="28" fill="#dbeafe" fill-opacity="0.45"/>
  <path d="M42 74H278" stroke="#CBD5E1" stroke-opacity="0.55" stroke-width="2" stroke-dasharray="6 10"/>
  <path d="M48 248H272" stroke="#CBD5E1" stroke-opacity="0.55" stroke-width="2" stroke-dasharray="6 10"/>
  <path d="M80 56C108 36, 212 36, 240 56" stroke="#0f172a" stroke-width="4" stroke-linecap="round"/>
  <circle cx="160" cy="120" r="46" stroke="#0f172a" stroke-width="4"/>
  <path d="M126 84C136 80, 144 80, 152 84" stroke="#0f172a" stroke-width="4" stroke-linecap="round"/>
  <path d="M168 84C176 80, 184 80, 194 84" stroke="#0f172a" stroke-width="4" stroke-linecap="round"/>
  <rect x="116" y="88" width="34" height="22" rx="8" stroke="#0f172a" stroke-width="3"/><rect x="170" y="88" width="34" height="22" rx="8" stroke="#0f172a" stroke-width="3"/><path d="M150 99H170" stroke="#0f172a" stroke-width="3" stroke-linecap="round"/>
  <path d="M160 110V138" stroke="#0f172a" stroke-width="4" stroke-linecap="round"/>
  <path d="M145 150C152 156, 168 156, 175 150" stroke="#0f172a" stroke-width="4" stroke-linecap="round"/>
  <path d="M142 144C149 149, 154 149, 160 144" stroke="#0f172a" stroke-width="3" stroke-linecap="round"/><path d="M160 144C166 149, 171 149, 178 144" stroke="#0f172a" stroke-width="3" stroke-linecap="round"/>
  <path d="M98 162C116 176, 204 176, 222 162" stroke="#0f172a" stroke-width="4" stroke-linecap="round"/>
  <path d="M116 190C136 206, 184 206, 204 190" stroke="#0f172a" stroke-width="4" stroke-linecap="round"/>
  <text x="38" y="286" fill="#0f172a" font-size="34" font-family="Georgia, 'Times New Roman', serif" font-weight="700">WL</text>
  <text x="38" y="306" fill="#475569" font-size="12" font-family="'Segoe UI', Arial, sans-serif">Sketch portrait placeholder</text>
</svg>